<svg xmlns="http://www.w3.org/2000/svg" version="1.1" xmlns:xlink="http://www.w3.org/1999/xlink" xmlns:svgjs="http://svgjs.dev/svgjs" width="2000" height="737" viewBox="0 0 2000 737"><g transform="matrix(1,0,0,1,-1.2121212121212466,0.12257999028412314)"><svg viewBox="0 0 396 146" data-background-color="#ffffff" preserveAspectRatio="xMidYMid meet" height="737" width="2000" xmlns="http://www.w3.org/2000/svg" xmlns:xlink="http://www.w3.org/1999/xlink"><g id="tight-bounds" transform="matrix(1,0,0,1,0.2400000000000091,-0.024283145972162856)"><svg viewBox="0 0 395.52 146.04856629194433" height="146.04856629194433" width="395.52"><g><svg viewBox="0 0 397.4975999999999 146.77880912340402" height="146.04856629194433" width="395.52"><g><rect width="397.4975999999999" height="2.9190677040773276" x="0" y="97.10938949309754" fill="#0080ff" opacity="1" stroke-width="0" stroke="transparent" fill-opacity="1" class="rect-r$-0" data-fill-palette-color="primary" rx="1%" id="r$-0" data-palette-color="#0080ff"></rect></g><g><rect width="397.4975999999999" height="2.9190677040773276" x="0" y="103.84922644334937" fill="#0080ff" opacity="1" stroke-width="0" stroke="transparent" fill-opacity="1" class="rect-r$-1" data-fill-palette-color="primary" rx="1%" id="r$-1" data-palette-color="#0080ff"></rect></g><g transform="matrix(1,0,0,1,0.9887999999999693,114.40983263977571)"><svg viewBox="0 0 395.52 32.36897648362826" height="32.36897648362826" width="395.52"><g id="textblocktransform"><svg viewBox="0 0 395.52 32.36897648362826" height="32.36897648362826" width="395.52" id="textblock"><g><svg viewBox="0 0 395.52 32.36897648362826" height="32.36897648362826" width="395.52"><g transform="matrix(1,0,0,1,0,0)"><svg width="395.52" viewBox="-11.9 -26.950000000000003 336.61640383967205 27.550000000000004" height="32.36897648362826" data-palette-color="#0080ff"><g transform="matrix(1,0,0,1,0,0)"><g><svg width="8.398073839672117" viewBox="1.78 -36.36 74.21 36.36" height="4.114654359724521" data-palette-color="#0080ff" id="scriptelement" x="314.579036919836" y="-23.06899717986226"><path d="M12.91-30.02L1.78-30.02 1.78-36.36 31.64-36.36 31.64-30.02 20.51-30.02 20.51 0 12.91 0 12.91-30.02ZM36.57 0L36.57-36.36 46.06-36.36 56.07-11.93 56.5-11.93 66.51-36.36 75.99-36.36 75.99 0 68.53 0 68.53-23.67 68.23-23.67 58.82-0.18 53.74-0.18 44.33-23.76 44.03-23.76 44.03 0 36.57 0Z" opacity="1" transform="matrix(1,0,0,1,0,0)" fill="#0080ff" class="undefined-123" data-fill-palette-color="primary" id="lv-123"></path></svg></g></g><path d="M312.84-21.012C312.84-24.291 315.498-26.95 318.778-26.95 322.058-26.95 324.716-24.291 324.716-21.012 324.716-17.732 322.058-15.073 318.778-15.073 315.498-15.073 312.84-17.732 312.84-21.012ZM318.778-15.473C321.837-15.473 324.316-17.953 324.316-21.012 324.316-24.07 321.837-26.55 318.778-26.55 315.719-26.55 313.24-24.07 313.24-21.012 313.24-17.953 315.719-15.473 318.778-15.473Z" fill="#0080ff" id="scriptcircle" data-fill-palette-color="primary"></path><path d="M9-0.15L-11.9-2.4 9.7-2.4 9-0.15ZM-8.05-21.65L13.5-21.65Q13.2-20.85 12.85-19.4L12.85-19.4-8.05-21.65ZM12.25-15L12.25-15 12.25-14.6-8.95-16.85 12.35-16.85Q12.25-15.65 12.25-15ZM11.3-7.25L10.6-5.05-10.25-7.25 11.3-7.25ZM-4.6-26.45L16.95-26.45Q15.6-25.45 14.9-24.35L14.9-24.35-4.6-26.45ZM-7-12.05L12.7-12.05Q13.15-10.75 14.15-9.8L14.15-9.8-7-12.05ZM35.05-25.9L32.65-18.6Q29.25-19.4 26.85-19.4 24.45-19.4 23.3-19.25L23.3-19.25 23.05-17.8 25.55-17.5Q33.6-16.45 33.6-10.85L33.6-10.85Q33.6-10.2 33.3-8.43 33-6.65 32.3-5 31.6-3.35 30.53-2.33 29.45-1.3 28.43-0.68 27.4-0.05 25.8 0.2L25.8 0.2Q23.3 0.6 19.13 0.6 14.95 0.6 10.7-0.55L10.7-0.55 13.15-7.95Q17.05-6.85 19.98-6.85 22.9-6.85 24.1-7L24.1-7 24.35-8.6 21.2-8.95Q17.15-9.4 15.45-10.85 13.75-12.3 13.75-15L13.75-15Q13.75-16 14-17.5L14-17.5Q15-22.85 17.6-24.9 20.2-26.95 25.53-26.95 30.85-26.95 35.05-25.9L35.05-25.9ZM68.55 0L60.15 0 61.7-9.15 56.1-9.15 54.5 0 46.1 0 50.7-26.45 59.15-26.45 57.5-17.3 63.15-17.3 64.75-26.45 73.2-26.45 68.55 0ZM44.85-2.4L44.45-0.15 23.25-2.4 44.85-2.4ZM46.55-12.05L46.15-9.8 24.95-12.05 46.55-12.05ZM47.4-16.85L47-14.6 25.8-16.85 47.4-16.85ZM48.25-21.65L47.85-19.4 26.65-21.65 48.25-21.65ZM49.05-26.45L48.7-24.2 27.5-26.45 49.05-26.45ZM45.7-7.25L45.3-5 24.1-7.25 45.7-7.25ZM99.95-26.95L99.95-26.95Q105.34-26.95 107.65-24.88 109.95-22.8 109.95-18.4L109.95-18.4Q109.95-16.25 109.4-13.2L109.4-13.2Q108.15-6 105-2.7 101.84 0.6 95.09 0.6L95.09 0.6Q89.8 0.6 87.55-1.48 85.3-3.55 85.3-7.9L85.3-7.9Q85.3-10.15 85.84-13.2L85.84-13.2Q87.09-20.4 90.2-23.68 93.3-26.95 99.95-26.95ZM93.59-7L96.55-7Q98-7 98.72-7.35 99.45-7.7 99.7-8.9L99.7-8.9 101.59-19.35 98.55-19.35Q97.15-19.35 96.37-19 95.59-18.65 95.45-17.5L95.45-17.5 93.59-7ZM64.15-12.05L84.09-12.05Q83.9-10.5 83.84-9.95L83.84-9.95 64.15-12.05ZM65.05-16.85L85.05-16.85 84.59-14.75 65.05-16.85ZM64.34-7.25L83.8-7.25Q83.8-6.45 84-5.15L84-5.15 64.34-7.25ZM67.05-21.65L86.8-21.65Q86.2-20.35 85.95-19.65L85.95-19.65 67.05-21.65ZM68.7-2.4L84.84-2.4Q85.45-1.2 86.15-0.55L86.15-0.55 68.7-2.4ZM73.75-26.45L91.15-26.45Q89.95-25.75 89.09-24.8L89.09-24.8 73.75-26.45ZM136.44 0L125.09 0 125.09-26.45 134.19-26.45 134.19-12.15 134.44-12.15 140.04-26.45 147.64-26.45 147.64-12.15 147.84-12.15 152.44-26.45 161.99-26.45 152.24 0 141.39 0 140.64-9.35 140.29-9.35 136.44 0ZM103.79-26.45L123.44-26.45 123.44-24.2 103.79-26.45ZM103.79-21.65L123.44-21.65 123.44-19.4 103.79-21.65ZM103.79-16.85L123.44-16.85 123.44-14.6 103.79-16.85ZM103.79-12.05L123.44-12.05 123.44-9.8 103.79-12.05ZM103.79-7.25L123.44-7.25 123.44-5 103.79-7.25ZM103.79-2.4L123.44-2.4 123.44-0.15 103.79-2.4ZM198.14-8.05L197.34-0.55Q194.64 0.6 189.84 0.6 185.04 0.6 182.76-1.43 180.49-3.45 180.49-7.8L180.49-7.8Q180.49-9.75 181.09-13.2L181.09-13.2Q182.34-20.45 185.41-23.7 188.49-26.95 195.24-26.95L195.24-26.95Q200.09-26.95 201.89-25.85L201.89-25.85 199.34-18.9Q196.84-19.6 194.79-19.6 192.74-19.6 191.91-19.25 191.09-18.9 190.89-17.9L190.89-17.9 188.94-7.2Q189.99-6.95 192.56-6.95 195.14-6.95 198.14-8.05L198.14-8.05ZM159.39-12.05L179.34-12.05Q179.14-10.5 179.09-9.95L179.09-9.95 159.39-12.05ZM160.29-16.85L180.29-16.85 179.84-14.75 160.29-16.85ZM159.59-7.25L179.04-7.25Q179.04-6.45 179.24-5.15L179.24-5.15 159.59-7.25ZM162.29-21.65L182.04-21.65Q181.44-20.35 181.19-19.65L181.19-19.65 162.29-21.65ZM163.94-2.4L180.09-2.4Q180.69-1.2 181.39-0.55L181.39-0.55 163.94-2.4ZM168.99-26.45L186.39-26.45Q185.19-25.75 184.34-24.8L184.34-24.8 168.99-26.45ZM236.44 0L227.69 0 227.49-4.05 221.19-4.05 219.64 0 210.99 0 222.09-26.45 234.49-26.45 236.44 0ZM223.84-11.2L227.49-11.2 227.49-18.8 226.79-18.8 223.84-11.2ZM210.34-2.4L209.39-0.2 188.89-2.4 210.34-2.4ZM212.39-7.25L211.44-5.05 190.94-7.25 212.39-7.25ZM214.39-12.05L213.49-9.85 192.99-12.05 214.39-12.05ZM216.44-16.85L215.49-14.65 195.04-16.85 216.44-16.85ZM218.44-21.65L217.54-19.45 197.09-21.65 218.44-21.65ZM220.44-26.45L219.54-24.3 199.14-26.45 220.44-26.45ZM254.08-26.45L266.78-26.45Q274.08-26.45 274.08-19.85L274.08-19.85Q274.08-16.85 272.88-13.63 271.68-10.4 268.83-8.8L268.83-8.8 271.68 0 262.33 0 260.43-7.7 259.23-7.7 257.88 0 249.48 0 254.08-26.45ZM264.63-16.05L264.93-17.8Q264.93-17.85 264.98-18.3L264.98-18.3Q264.98-19.15 262.33-19.15L262.33-19.15 261.23-19.15 260.43-14.55 262.03-14.55Q264.33-14.55 264.63-16.05L264.63-16.05ZM248.23-2.4L247.83-0.15 226.63-2.4 248.23-2.4ZM249.93-12.05L249.53-9.8 228.33-12.05 249.93-12.05ZM250.78-16.85L250.38-14.6 229.18-16.85 250.78-16.85ZM251.63-21.65L251.23-19.4 230.03-21.65 251.63-21.65ZM252.43-26.45L252.08-24.2 230.88-26.45 252.43-26.45ZM249.08-7.25L248.68-5 227.48-7.25 249.08-7.25ZM284.33-0.15L263.43-2.4 285.03-2.4 284.33-0.15ZM267.28-21.65L288.83-21.65Q288.53-20.85 288.18-19.4L288.18-19.4 267.28-21.65ZM287.58-15L287.58-15 287.58-14.6 266.38-16.85 287.68-16.85Q287.58-15.65 287.58-15ZM286.63-7.25L285.93-5.05 265.08-7.25 286.63-7.25ZM270.73-26.45L292.28-26.45Q290.93-25.45 290.23-24.35L290.23-24.35 270.73-26.45ZM268.33-12.05L288.03-12.05Q288.48-10.75 289.48-9.8L289.48-9.8 268.33-12.05ZM310.38-25.9L307.98-18.6Q304.58-19.4 302.18-19.4 299.78-19.4 298.63-19.25L298.63-19.25 298.38-17.8 300.88-17.5Q308.93-16.45 308.93-10.85L308.93-10.85Q308.93-10.2 308.63-8.43 308.33-6.65 307.63-5 306.93-3.35 305.86-2.33 304.78-1.3 303.76-0.68 302.73-0.05 301.13 0.2L301.13 0.2Q298.63 0.6 294.46 0.6 290.28 0.6 286.03-0.55L286.03-0.55 288.48-7.95Q292.38-6.85 295.31-6.85 298.23-6.85 299.43-7L299.43-7 299.68-8.6 296.53-8.95Q292.48-9.4 290.78-10.85 289.08-12.3 289.08-15L289.08-15Q289.08-16 289.33-17.5L289.33-17.5Q290.33-22.85 292.93-24.9 295.53-26.95 300.86-26.95 306.18-26.95 310.38-25.9L310.38-25.9Z" opacity="1" transform="matrix(1,0,0,1,0,0)" fill="#0080ff" class="wordmark-text-0" data-fill-palette-color="primary" id="text-0"></path></svg></g></svg></g></svg></g></svg></g><g transform="matrix(1,0,0,1,58.82339024114765,0)"><svg viewBox="0 0 279.8508195177046 89.46785100074851" height="89.46785100074851" width="279.8508195177046"><g><svg xmlns="http://www.w3.org/2000/svg" xmlns:xlink="http://www.w3.org/1999/xlink" version="1.1" x="0" y="0" viewBox="30.7904922915063 111.64037547494668 339.68150770849365 108.59562452505334" enable-background="new 0 0 395.601 302.8" xml:space="preserve" height="89.46785100074851" width="279.8508195177046" class="icon-icon-0" data-fill-palette-color="accent" id="icon-0"><path d="M325.411 155.52c18.883-9.441 37.557 4.65 40.904 7.428 0.096 0.026 0.186 0.045 0.283 0.071 4.26 1.525-17.504-27.44-39.832-15.589 2.029-5.538-1.23-9.616-3.807-10.186-2.574-0.568-10.523 2.053-15.148 7.454 0.203-3.854-3.207-7.541-10.486-9.546-7.279-2.004-56.062-10.455-104.449-11.965-0.005 0.239-0.001 0.476-0.013 0.716-0.811 15.421-18.327 27.039-39.128 25.946-19.518-1.025-34.989-12.877-36.152-27.076-36.746 2.99-70.853 11.334-80.709 20.504-13.692 12.739-2.889 46.73 18.62 50.466 2.564 0.445 7.802 1.08 15.137 1.829-0.697-3.347-0.983-6.835-0.795-10.411 1.174-22.355 20.248-39.525 42.603-38.35 22.355 1.173 39.526 20.247 38.351 42.602-0.227 4.33-1.133 8.459-2.596 12.305 71.179 1.342 116.513 2.643 156.071-1.163-0.602-2.821-0.848-5.75-0.848-8.759C303.417 178.857 306.528 164.961 325.411 155.52zM110.485 152.151c-18.8 0-34.042 15.241-34.042 34.043 0 18.801 15.242 34.042 34.042 34.042 18.802 0 34.043-15.241 34.043-34.042C144.528 167.393 129.287 152.151 110.485 152.151zM110.485 206.236c-11.069 0-20.043-8.974-20.043-20.042 0-11.07 8.974-20.043 20.043-20.043 11.07 0 20.043 8.973 20.043 20.043C130.528 197.263 121.555 206.236 110.485 206.236zM340.054 157.81c-16.797 0-30.414 13.617-30.414 30.416 0 16.797 13.617 30.414 30.414 30.414 16.799 0 30.418-13.617 30.418-30.414C370.472 171.427 356.853 157.81 340.054 157.81zM340.056 205.739c-9.674 0-17.516-7.842-17.516-17.514 0-9.674 7.842-17.516 17.516-17.516 9.672 0 17.516 7.842 17.516 17.516C357.571 197.897 349.728 205.739 340.056 205.739zM177.073 139.868c1.671 0.57 3.488-0.322 4.059-1.993l7.51-22.004c0.569-1.671-0.322-3.487-1.993-4.059-1.67-0.569-3.487 0.323-4.058 1.993l-7.511 22.005C174.509 137.481 175.401 139.297 177.073 139.868z" fill="#010c80" data-fill-palette-color="accent"></path></svg></g></svg></g><g></g></svg></g><defs></defs></svg><rect width="395.52" height="146.04856629194433" fill="none" stroke="none" visibility="hidden"></rect></g></svg></g></svg>